<svg width="61" height="68" viewBox="0 0 61 68" fill="none" xmlns="http://www.w3.org/2000/svg">
<path d="M38.8593 12.1641L40.3112 9.04374C40.4461 8.75422 40.4525 8.4261 40.324 8.13658L37.1312 0.673433C36.9064 0.1523 36.3282 -0.117918 35.7886 0.0493598L28.0282 2.39768C27.7262 2.48775 27.4757 2.7065 27.3408 2.98958L20.332 18.0445C25.3172 13.1871 31.9148 11.4564 38.8529 12.1577" fill="#1D5CFF"/>
<path d="M60.4766 37.1783C60.4702 37.0497 60.4574 36.9146 60.4509 36.7859C60.406 36.1168 60.3353 35.4477 60.2325 34.7914C60.2197 34.7207 60.2068 34.6499 60.194 34.5791C60.0912 33.9486 59.9563 33.3181 59.8021 32.7005C59.7764 32.6104 59.7571 32.5139 59.7379 32.4238C59.5708 31.7869 59.3717 31.1564 59.1532 30.5323C59.1083 30.4036 59.0633 30.2814 59.0183 30.1527C58.7871 29.5351 58.5365 28.9238 58.2539 28.3255C58.2153 28.2419 58.1704 28.1582 58.1254 28.0746C57.8491 27.4956 57.5472 26.9358 57.2196 26.3825C57.181 26.3182 57.1489 26.2538 57.1104 26.1959C56.7635 25.6233 56.3909 25.07 55.999 24.5296C55.9219 24.4202 55.8448 24.3173 55.7677 24.2079C55.3694 23.6803 54.9518 23.1656 54.5086 22.6638C54.4315 22.5802 54.3544 22.503 54.2837 22.4193C53.834 21.9304 53.3715 21.4543 52.8768 21.0039C52.8447 20.9717 52.8126 20.9396 52.7805 20.9138C52.273 20.4506 51.7333 20.0131 51.1744 19.5949C51.0716 19.5177 50.9624 19.4341 50.8596 19.3569C50.3136 18.958 49.7418 18.5719 49.1508 18.2181C49.0416 18.1538 48.9324 18.0894 48.8232 18.0251C48.2 17.6584 47.5576 17.3109 46.8895 17.0021C46.215 16.6869 45.534 16.4166 44.8466 16.1722C44.7374 16.1336 44.6282 16.095 44.519 16.0564C43.8958 15.844 43.2663 15.6639 42.6367 15.5031C41.6731 15.2521 40.6838 15.027 39.6559 14.8854C39.0006 14.7953 38.3389 14.7374 37.6901 14.7053C30.7327 14.3578 24.1158 17.3495 19.5161 22.4451C19.484 22.4772 19.4519 22.503 19.4262 22.5351C19.3941 22.5673 19.3684 22.6059 19.3427 22.6381C18.8994 23.1399 18.469 23.6546 18.0643 24.195C17.9872 24.3044 17.9101 24.4074 17.8266 24.5167C17.6467 24.7676 17.454 25.0186 17.2805 25.2823C17.1649 25.4561 17.0621 25.6426 16.9465 25.8163C16.9079 25.8743 16.8758 25.9322 16.8373 25.9901C16.7409 26.1509 16.6381 26.3053 16.5417 26.4662C16.4775 26.5755 16.4068 26.6849 16.3426 26.7943C16.0664 27.2832 15.8094 27.7915 15.5653 28.3062C15.546 28.3512 15.5203 28.3898 15.501 28.4284L0.603386 60.4299C0.346419 60.9896 0.584111 61.6459 1.14301 61.9097L12.0898 67.0245C12.6487 67.2819 13.304 67.0438 13.5674 66.4841L19.2784 54.2213L19.2977 54.1827L28.465 34.489C28.6513 34.0901 28.8697 33.717 29.101 33.3567C29.1652 33.2602 29.2295 33.1637 29.2937 33.0672C29.3194 33.0286 29.3515 32.9964 29.3837 32.9578C29.5314 32.7455 29.6984 32.546 29.859 32.353C29.9297 32.263 30.0004 32.1793 30.0775 32.0957C30.1867 31.9799 30.3023 31.8641 30.4179 31.7547C30.54 31.6389 30.6556 31.5231 30.7841 31.4137C33.1032 29.3871 36.3346 28.6086 39.3925 29.4643C39.6302 29.5351 39.8679 29.5994 40.0927 29.6895C40.2148 29.7345 40.3304 29.786 40.4461 29.831C40.6645 29.9211 40.8765 30.0176 41.0821 30.1205C41.2041 30.1784 41.3198 30.2428 41.4354 30.3071C41.6345 30.4165 41.8273 30.5387 42.0136 30.661C42.1164 30.7317 42.2191 30.7961 42.3219 30.8668C42.5275 31.0148 42.7266 31.1757 42.9194 31.3365C42.9836 31.3944 43.0543 31.4459 43.125 31.5038C43.3755 31.729 43.6132 31.967 43.838 32.2179C43.8894 32.2758 43.928 32.3337 43.9794 32.3916C44.1464 32.5911 44.3134 32.7905 44.4612 33.0028C44.5318 33.0993 44.5897 33.1959 44.6539 33.2924C44.776 33.4725 44.8916 33.6591 44.9944 33.8457C45.0586 33.955 45.1164 34.0644 45.1678 34.1738C45.2642 34.3668 45.3541 34.5598 45.4377 34.7528C45.4826 34.8622 45.534 34.9716 45.579 35.0874C45.6625 35.3061 45.7332 35.5313 45.8038 35.7565C45.8295 35.8466 45.8681 35.9431 45.8873 36.0331C45.9709 36.3548 46.0415 36.6765 46.0929 37.0046C46.0993 37.0497 46.0993 37.0947 46.1058 37.1397C46.1443 37.4228 46.1764 37.7059 46.1893 37.9954C46.1893 38.1048 46.1893 38.2206 46.1893 38.33C46.1893 38.5552 46.1893 38.7803 46.1764 38.9991C46.17 39.1213 46.1572 39.25 46.1443 39.3787C46.125 39.591 46.0929 39.8097 46.0544 40.0285C46.0351 40.1507 46.0094 40.2794 45.9837 40.4017C45.9323 40.6333 45.8745 40.8584 45.8038 41.0836C45.7717 41.193 45.746 41.2959 45.7139 41.3989C45.6047 41.727 45.4762 42.0551 45.3284 42.3768C43.1571 47.0413 37.6194 49.0615 32.9619 46.8869C30.7456 45.851 29.1395 44.0496 28.2851 41.9458L21.4819 56.3252C23.088 57.7149 24.8996 58.9244 26.9168 59.8702C38.7308 65.3903 52.7805 60.2691 58.2924 48.431C58.6008 47.7619 58.8706 47.0863 59.1147 46.4043C59.1597 46.2821 59.2046 46.1663 59.2432 46.044C59.468 45.3878 59.6608 44.7316 59.8214 44.0689C59.8535 43.9402 59.8792 43.8115 59.9113 43.6829C60.0655 43.0009 60.2004 42.3189 60.2903 41.6369C60.2967 41.5919 60.2968 41.5469 60.3032 41.5018C60.3931 40.8391 60.4445 40.1765 60.4702 39.5138C60.4702 39.4044 60.483 39.2886 60.4895 39.1792C60.5087 38.5101 60.5023 37.8475 60.4638 37.1848" fill="#1D5CFF"/>
</svg>
