<svg width="235" height="196" viewBox="0 0 235 196" fill="none" xmlns="http://www.w3.org/2000/svg">
<path d="M135.048 25.3447L138.073 18.8432C138.354 18.24 138.368 17.5563 138.1 16.9531L131.448 1.40314C130.979 0.317326 129.774 -0.245689 128.65 0.102844L112.481 4.99571C111.852 5.18338 111.33 5.63916 111.049 6.22898L96.4453 37.597C106.832 27.4761 120.579 23.8701 135.035 25.3313" fill="#1D5CFF"/>
<path d="M180.09 77.463C180.077 77.1949 180.05 76.9134 180.037 76.6453C179.943 75.2511 179.796 73.857 179.582 72.4897C179.555 72.3422 179.528 72.1948 179.501 72.0473C179.287 70.7336 179.006 69.4199 178.685 68.133C178.631 67.9453 178.591 67.7443 178.551 67.5566C178.203 66.2295 177.788 64.9158 177.333 63.6155C177.239 63.3474 177.145 63.0927 177.052 62.8246C176.57 61.5377 176.048 60.2642 175.459 59.0175C175.379 58.8433 175.285 58.669 175.191 58.4947C174.616 57.2883 173.987 56.122 173.304 54.9692C173.224 54.8351 173.157 54.7011 173.076 54.5804C172.354 53.3874 171.577 52.2345 170.761 51.1085C170.6 50.8806 170.439 50.6661 170.279 50.4382C169.449 49.339 168.579 48.2666 167.655 47.221C167.495 47.0468 167.334 46.8859 167.187 46.7116C166.25 45.6928 165.286 44.7009 164.256 43.7625C164.189 43.6955 164.122 43.6284 164.055 43.5748C162.997 42.6097 161.873 41.6981 160.708 40.8268C160.494 40.6659 160.267 40.4916 160.053 40.3308C158.915 39.4997 157.724 38.6954 156.492 37.9581C156.265 37.824 156.037 37.69 155.809 37.5559C154.511 36.7918 153.173 36.068 151.781 35.4245C150.375 34.7677 148.956 34.2046 147.524 33.6953C147.297 33.6148 147.069 33.5344 146.841 33.454C145.543 33.0116 144.231 32.6362 142.92 32.3011C140.912 31.7783 138.85 31.3091 136.709 31.0142C135.344 30.8266 133.965 30.7059 132.613 30.6389C118.117 29.915 104.33 36.1484 94.7463 46.7652C94.6794 46.8323 94.6125 46.8859 94.559 46.9529C94.492 47.0199 94.4385 47.1004 94.3849 47.1674C93.4614 48.213 92.5646 49.2854 91.7213 50.4114C91.5607 50.6393 91.4 50.8538 91.226 51.0817C90.8513 51.6045 90.4497 52.1273 90.0883 52.6769C89.8474 53.0388 89.6332 53.4276 89.3923 53.7895C89.312 53.9102 89.245 54.0308 89.1647 54.1515C88.964 54.4866 88.7498 54.8083 88.549 55.1434C88.4152 55.3713 88.2679 55.5992 88.1341 55.8271C87.5585 56.8459 87.0231 57.9049 86.5145 58.9773C86.4743 59.0711 86.4208 59.1516 86.3806 59.232L55.3404 125.909C54.805 127.075 55.3003 128.443 56.4648 128.992L79.2731 139.649C80.4376 140.186 81.8029 139.69 82.3517 138.523L94.2511 112.973L94.2913 112.893L113.392 71.8596C113.78 71.0285 114.235 70.251 114.717 69.5003C114.851 69.2993 114.985 69.0982 115.119 68.8971C115.172 68.8167 115.239 68.7496 115.306 68.6692C115.614 68.2268 115.962 67.8113 116.296 67.4091C116.444 67.2215 116.591 67.0472 116.752 66.8729C116.979 66.6316 117.22 66.3903 117.461 66.1625C117.715 65.9212 117.956 65.6799 118.224 65.452C123.056 61.2294 129.789 59.6074 136.16 61.3902C136.655 61.5377 137.151 61.6717 137.619 61.8594C137.873 61.9533 138.114 62.0605 138.355 62.1543C138.81 62.342 139.252 62.5431 139.68 62.7576C139.935 62.8782 140.176 63.0123 140.417 63.1463C140.831 63.3742 141.233 63.6289 141.621 63.8836C141.835 64.031 142.05 64.1651 142.264 64.3125C142.692 64.6209 143.107 64.956 143.508 65.2911C143.642 65.4118 143.79 65.519 143.937 65.6397C144.459 66.1088 144.954 66.6048 145.423 67.1276C145.53 67.2483 145.61 67.3689 145.717 67.4896C146.065 67.9051 146.413 68.3207 146.721 68.7631C146.868 68.9641 146.989 69.1652 147.123 69.3663C147.377 69.7416 147.618 70.1304 147.832 70.5191C147.966 70.747 148.086 70.9749 148.193 71.2028C148.394 71.6049 148.582 72.0071 148.756 72.4092C148.849 72.6371 148.956 72.865 149.05 73.1063C149.224 73.5621 149.371 74.0313 149.518 74.5004C149.572 74.6881 149.652 74.8892 149.692 75.0769C149.866 75.7471 150.014 76.4174 150.121 77.101C150.134 77.1949 150.134 77.2887 150.148 77.3825C150.228 77.9724 150.295 78.5622 150.322 79.1654C150.322 79.3933 150.322 79.6346 150.322 79.8625C150.322 80.3317 150.322 80.8008 150.295 81.2566C150.281 81.5113 150.255 81.7794 150.228 82.0475C150.188 82.4899 150.121 82.9457 150.04 83.4014C150 83.6561 149.947 83.9242 149.893 84.1789C149.786 84.6615 149.666 85.1307 149.518 85.5999C149.452 85.8278 149.398 86.0422 149.331 86.2567C149.104 86.9404 148.836 87.6241 148.528 88.2943C144.004 98.013 132.466 102.222 122.761 97.6913C118.144 95.5331 114.797 91.7796 113.017 87.3962L98.8422 117.357C102.188 120.252 105.963 122.772 110.166 124.743C134.781 136.244 164.055 125.574 175.539 100.909C176.182 99.5144 176.744 98.1068 177.253 96.6859C177.346 96.4312 177.44 96.1899 177.52 95.9352C177.989 94.5679 178.39 93.2006 178.725 91.8199C178.792 91.5518 178.845 91.2836 178.912 91.0155C179.234 89.5946 179.515 88.1737 179.702 86.7527C179.715 86.6589 179.715 86.565 179.729 86.4712C179.916 85.0905 180.023 83.7098 180.077 82.329C180.077 82.1011 180.104 81.8599 180.117 81.632C180.157 80.2378 180.144 78.8571 180.063 77.4764" fill="#1D5CFF"/>
<path d="M0.140625 164.625H11.7677C19.6398 164.625 24.248 169.014 24.248 175.706C24.248 182.399 19.6398 186.865 11.7677 186.865H6.90102V194.937H0.140625V164.625ZM11.4704 180.878C15.219 180.878 17.4876 179.092 17.4876 175.706C17.4876 172.321 15.219 170.612 11.4704 170.612H6.90102V180.878H11.4704Z" fill="#1D5CFF"/>
<path d="M45.8955 194.937L40.027 185.377H34.6432V194.937H27.8828V164.625H40.0657C47.7504 164.625 52.2487 168.716 52.2487 175.001C52.2487 179.169 50.2774 182.367 46.7163 184.037L53.7352 194.937H45.9019H45.8955ZM34.6432 179.389H39.7684C43.3361 179.389 45.4883 177.868 45.4883 175.001C45.4883 172.133 43.3361 170.612 39.7684 170.612H34.6432V179.389Z" fill="#1D5CFF"/>
<path d="M55.1797 179.758C55.1797 170.573 62.121 163.842 71.5184 163.842C80.9157 163.842 87.8571 170.573 87.8571 179.758C87.8571 188.943 80.9157 195.681 71.5184 195.681C62.121 195.681 55.1797 188.95 55.1797 179.758ZM81.1032 179.758C81.1032 174.03 77.0185 169.939 71.5184 169.939C66.0183 169.939 61.9336 174.03 61.9336 179.758C61.9336 185.487 66.0183 189.577 71.5184 189.577C77.0185 189.577 81.1032 185.448 81.1032 179.758Z" fill="#1D5CFF"/>
<path d="M90.5312 179.758C90.5312 170.573 97.4015 163.842 106.721 163.842C115.039 163.842 120.61 168.865 121.838 175.26H115.007C114.303 172.36 111.22 170.049 106.876 170.049C101.383 170.049 97.2917 174.101 97.2917 179.758C97.2917 185.415 101.376 189.467 106.876 189.467C111.22 189.467 114.787 186.606 115.304 183.849H122.136C121.205 189.946 115.117 195.675 106.721 195.675C97.4015 195.675 90.5312 188.943 90.5312 179.752" fill="#1D5CFF"/>
<path d="M132.799 164.625V188.95H147.91V194.937H126.039V164.625H132.799Z" fill="#1D5CFF"/>
<path d="M170.681 189.06H158.944L156.824 194.937H149.844L161.581 164.625H168.6L180.337 194.937H172.794L170.681 189.06ZM168.6 183.182L164.812 172.619L161.025 183.182H168.6Z" fill="#1D5CFF"/>
<path d="M206.743 173.771H199.763C199.356 171.13 197.384 169.532 194.153 169.532C190.921 169.532 189.254 170.794 189.254 172.619C189.254 174.891 191.593 175.668 197.501 176.898C204.481 178.347 206.859 181.804 206.859 186.348C206.859 192.147 201.398 195.681 194.638 195.681C187.173 195.681 181.711 191.629 181.414 185.157H188.355C188.724 188.057 191.251 189.992 195.116 189.992C197.863 189.992 199.905 188.613 199.905 186.645C199.905 184.225 197.863 183.26 192.479 182.257C185.906 181.027 182.338 178.315 182.338 172.626C182.338 166.936 187.761 163.881 194.592 163.881C201.424 163.881 206.4 168.01 206.736 173.778" fill="#1D5CFF"/>
<path d="M234.743 173.771H227.763C227.356 171.13 225.384 169.532 222.153 169.532C218.921 169.532 217.254 170.794 217.254 172.619C217.254 174.891 219.593 175.668 225.501 176.898C232.481 178.347 234.859 181.804 234.859 186.348C234.859 192.147 229.398 195.681 222.638 195.681C215.173 195.681 209.711 191.629 209.414 185.157H216.355C216.724 188.057 219.251 189.992 223.116 189.992C225.863 189.992 227.905 188.613 227.905 186.645C227.905 184.225 225.863 183.26 220.479 182.257C213.906 181.027 210.338 178.315 210.338 172.626C210.338 166.936 215.761 163.881 222.592 163.881C229.424 163.881 234.4 168.01 234.736 173.778" fill="#1D5CFF"/>
</svg>
