<svg width="149" height="30" viewBox="0 0 149 30" fill="none" xmlns="http://www.w3.org/2000/svg">
<path d="M17.1428 5.43623L17.7917 4.04172C17.852 3.91233 17.8548 3.76569 17.7974 3.6363L16.3705 0.300962C16.27 0.0680639 16.0116 -0.0526983 15.7705 0.0220593L12.3023 1.07154C12.1673 1.11179 12.0554 1.20955 11.9951 1.33607L8.86279 8.06425C11.0907 5.8934 14.0393 5.11995 17.14 5.43336" fill="#1D5CFF"/>
<path d="M26.8042 16.6152C26.8013 16.5576 26.7955 16.4973 26.7927 16.4398C26.7726 16.1407 26.741 15.8417 26.6951 15.5484C26.6893 15.5168 26.6836 15.4852 26.6778 15.4535C26.6319 15.1718 26.5716 14.89 26.5027 14.614C26.4912 14.5737 26.4826 14.5306 26.474 14.4903C26.3993 14.2057 26.3103 13.9239 26.2127 13.645C26.1926 13.5875 26.1725 13.5328 26.1524 13.4753C26.0491 13.1993 25.9371 12.9262 25.8108 12.6588C25.7936 12.6214 25.7735 12.584 25.7534 12.5466C25.6299 12.2878 25.495 12.0377 25.3486 11.7904C25.3313 11.7617 25.317 11.7329 25.2997 11.707C25.1447 11.4511 24.9782 11.2039 24.8031 10.9623C24.7686 10.9135 24.7341 10.8674 24.6997 10.8186C24.5217 10.5828 24.3351 10.3528 24.137 10.1285C24.1025 10.0911 24.0681 10.0566 24.0365 10.0192C23.8355 9.80072 23.6288 9.58794 23.4077 9.38667C23.3934 9.3723 23.379 9.35792 23.3647 9.34642C23.1379 9.1394 22.8967 8.94388 22.6469 8.75699C22.601 8.72248 22.5522 8.6851 22.5062 8.6506C22.2622 8.47233 22.0067 8.29981 21.7425 8.14167C21.6937 8.11292 21.6449 8.08417 21.5961 8.05542C21.3176 7.89152 21.0305 7.73626 20.7319 7.59824C20.4305 7.45735 20.1262 7.33659 19.819 7.22733C19.7701 7.21008 19.7213 7.19283 19.6725 7.17558C19.394 7.08069 19.1127 7.00018 18.8313 6.9283C18.4007 6.81616 17.9585 6.71553 17.4992 6.65227C17.2063 6.61202 16.9106 6.58614 16.6206 6.57177C13.5113 6.4165 10.5542 7.75351 8.4985 10.0307C8.48415 10.0451 8.46979 10.0566 8.45831 10.071C8.44395 10.0854 8.43247 10.1026 8.42098 10.117C8.22288 10.3413 8.03053 10.5713 7.84965 10.8128C7.8152 10.8617 7.78075 10.9077 7.74342 10.9566C7.66303 11.0687 7.57691 11.1809 7.49939 11.2987C7.44771 11.3764 7.40177 11.4598 7.35009 11.5374C7.33287 11.5633 7.31851 11.5891 7.30129 11.615C7.25822 11.6869 7.21228 11.7559 7.16922 11.8278C7.14051 11.8767 7.10893 11.9256 7.08022 11.9744C6.95676 12.193 6.84192 12.4201 6.73282 12.6501C6.72421 12.6703 6.71273 12.6875 6.70411 12.7048L0.0462041 27.0065C-0.0686369 27.2566 0.0375899 27.5499 0.287369 27.6678L5.1796 29.9536C5.42938 30.0686 5.72222 29.9622 5.83994 29.7121L8.39228 24.2318L8.40089 24.2145L12.4978 15.4133C12.5811 15.235 12.6787 15.0682 12.7821 14.9072C12.8108 14.8641 12.8395 14.821 12.8682 14.7778C12.8797 14.7606 12.894 14.7462 12.9084 14.729C12.9744 14.6341 13.0491 14.5449 13.1209 14.4587C13.1524 14.4184 13.184 14.3811 13.2185 14.3437C13.2673 14.2919 13.319 14.2402 13.3706 14.1913C13.4252 14.1395 13.4769 14.0878 13.5343 14.0389C14.5707 13.1332 16.0148 12.7853 17.3815 13.1677C17.4877 13.1993 17.5939 13.2281 17.6944 13.2683C17.7489 13.2884 17.8006 13.3114 17.8523 13.3316C17.9499 13.3718 18.0447 13.415 18.1365 13.461C18.1911 13.4868 18.2428 13.5156 18.2944 13.5443C18.3834 13.5932 18.4696 13.6479 18.5528 13.7025C18.5988 13.7341 18.6447 13.7629 18.6906 13.7945C18.7825 13.8606 18.8715 13.9325 18.9576 14.0044C18.9864 14.0303 19.0179 14.0533 19.0495 14.0791C19.1615 14.1798 19.2677 14.2862 19.3682 14.3983C19.3912 14.4242 19.4084 14.4501 19.4314 14.4759C19.506 14.5651 19.5807 14.6542 19.6467 14.7491C19.6783 14.7922 19.7041 14.8354 19.7328 14.8785C19.7874 14.959 19.8391 15.0424 19.885 15.1258C19.9137 15.1746 19.9395 15.2235 19.9625 15.2724C20.0056 15.3587 20.0458 15.4449 20.0831 15.5312C20.1032 15.58 20.1262 15.6289 20.1463 15.6807C20.1836 15.7784 20.2152 15.8791 20.2467 15.9797C20.2582 16.02 20.2754 16.0631 20.2841 16.1034C20.3214 16.2471 20.353 16.3909 20.3759 16.5375C20.3788 16.5576 20.3788 16.5778 20.3817 16.5979C20.3989 16.7244 20.4133 16.8509 20.419 16.9803C20.419 17.0292 20.419 17.081 20.419 17.1298C20.419 17.2305 20.419 17.3311 20.4133 17.4289C20.4104 17.4835 20.4046 17.541 20.3989 17.5985C20.3903 17.6934 20.3759 17.7911 20.3587 17.8889C20.3501 17.9435 20.3386 18.001 20.3271 18.0557C20.3042 18.1592 20.2783 18.2598 20.2467 18.3605C20.2324 18.4093 20.2209 18.4553 20.2065 18.5013C20.1577 18.648 20.1003 18.7946 20.0343 18.9384C19.0639 21.023 16.5891 21.9258 14.5076 20.954C13.5171 20.491 12.7993 19.686 12.4175 18.7457L9.37704 25.172C10.0948 25.7931 10.9044 26.3336 11.8059 26.7563C17.0857 29.2233 23.3647 26.9346 25.828 21.644C25.9658 21.345 26.0864 21.0431 26.1955 20.7383C26.2156 20.6837 26.2357 20.6319 26.2529 20.5773C26.3534 20.284 26.4395 19.9907 26.5113 19.6946C26.5257 19.6371 26.5372 19.5796 26.5515 19.5221C26.6204 19.2173 26.6807 18.9125 26.7209 18.6077C26.7238 18.5876 26.7238 18.5675 26.7266 18.5473C26.7668 18.2512 26.7898 17.955 26.8013 17.6589C26.8013 17.61 26.807 17.5583 26.8099 17.5094C26.8185 17.2103 26.8156 16.9142 26.7984 16.618" fill="#1D5CFF"/>
<path d="M35.0513 7.69482H40.6626C44.4617 7.69482 46.6857 9.81275 46.6857 13.0428C46.6857 16.2728 44.4617 18.4282 40.6626 18.4282H38.3139V22.3235H35.0513V7.69482ZM40.5191 15.5387C42.3282 15.5387 43.4231 14.6765 43.4231 13.0428C43.4231 11.409 42.3282 10.5843 40.5191 10.5843H38.3139V15.5387H40.5191Z" fill="#1D5CFF"/>
<path d="M57.132 22.3235L54.2998 17.7097H51.7016V22.3235H48.439V7.69482H54.3186C58.0272 7.69482 60.1981 9.66906 60.1981 12.7023C60.1981 14.714 59.2468 16.2571 57.5282 17.0631L60.9156 22.3235H57.1351H57.132ZM51.7016 14.8202H54.1751C55.8968 14.8202 56.9355 14.0861 56.9355 12.7023C56.9355 11.3184 55.8968 10.5843 54.1751 10.5843H51.7016V14.8202Z" fill="#1D5CFF"/>
<path d="M61.6128 14.9983C61.6128 10.5656 64.9628 7.31689 69.498 7.31689C74.0332 7.31689 77.3832 10.5656 77.3832 14.9983C77.3832 19.431 74.0332 22.6828 69.498 22.6828C64.9628 22.6828 61.6128 19.4341 61.6128 14.9983ZM74.1237 14.9983C74.1237 12.2337 72.1524 10.2595 69.498 10.2595C66.8436 10.2595 64.8723 12.2337 64.8723 14.9983C64.8723 17.7629 66.8436 19.7371 69.498 19.7371C72.1524 19.7371 74.1237 17.7441 74.1237 14.9983Z" fill="#1D5CFF"/>
<path d="M78.6777 14.9983C78.6777 10.5656 81.9934 7.31689 86.4912 7.31689C90.5055 7.31689 93.1942 9.74096 93.7869 12.8273H90.4899C90.15 11.4278 88.6621 10.3126 86.5661 10.3126C83.9148 10.3126 81.9404 12.2681 81.9404 14.9983C81.9404 17.7285 83.9117 19.684 86.5661 19.684C88.6621 19.684 90.3839 18.3033 90.6334 16.9725H93.9304C93.4812 19.9152 90.543 22.6797 86.4912 22.6797C81.9934 22.6797 78.6777 19.431 78.6777 14.9952" fill="#1D5CFF"/>
<path d="M99.0756 7.69482V19.434H106.368V22.3235H95.813V7.69482H99.0756Z" fill="#1D5CFF"/>
<path d="M117.355 19.4871H111.691L110.668 22.3235H107.299L112.964 7.69482H116.351L122.015 22.3235H118.375L117.355 19.4871ZM116.351 16.6507L114.523 11.5527L112.695 16.6507H116.351Z" fill="#1D5CFF"/>
<path d="M134.76 12.1086H131.391C131.195 10.8341 130.244 10.0625 128.684 10.0625C127.124 10.0625 126.32 10.6717 126.32 11.5526C126.32 12.649 127.449 13.0239 130.3 13.6174C133.668 14.3171 134.816 15.9852 134.816 18.1781C134.816 20.9771 132.181 22.6826 128.918 22.6826C125.315 22.6826 122.68 20.7271 122.536 17.6034H125.886C126.064 19.0028 127.283 19.9368 129.149 19.9368C130.474 19.9368 131.46 19.2715 131.46 18.3218C131.46 17.1535 130.474 16.6881 127.876 16.2039C124.704 15.6104 122.982 14.3015 122.982 11.5557C122.982 8.80988 125.599 7.33545 128.896 7.33545C132.193 7.33545 134.595 9.32843 134.757 12.1117" fill="#1D5CFF"/>
<path d="M148.272 12.1086H144.904C144.707 10.8341 143.756 10.0625 142.196 10.0625C140.637 10.0625 139.832 10.6717 139.832 11.5526C139.832 12.649 140.961 13.0239 143.812 13.6174C147.181 14.3171 148.328 15.9852 148.328 18.1781C148.328 20.9771 145.693 22.6826 142.43 22.6826C138.828 22.6826 136.192 20.7272 136.048 17.6034H139.398C139.576 19.0028 140.796 19.9368 142.661 19.9368C143.987 19.9368 144.972 19.2715 144.972 18.3218C144.972 17.1535 143.987 16.6881 141.388 16.2039C138.216 15.6104 136.494 14.3015 136.494 11.5557C136.494 8.80988 139.111 7.33545 142.408 7.33545C145.705 7.33545 148.107 9.32843 148.269 12.1117" fill="#1D5CFF"/>
</svg>
