<svg width="180" height="37" viewBox="0 0 180 37" fill="none" xmlns="http://www.w3.org/2000/svg">
<path d="M20.8039 6.59699L21.5913 4.90472C21.6644 4.7477 21.6679 4.56975 21.5982 4.41273L19.8667 0.365225C19.7447 0.0825972 19.4312 -0.0639506 19.1385 0.0267695L14.9298 1.30034C14.766 1.34919 14.6301 1.46782 14.557 1.62135L10.7559 9.78615C13.4595 7.15178 17.0376 6.21318 20.8004 6.5935" fill="#1D5CFF"/>
<path d="M32.5275 20.1631C32.524 20.0934 32.517 20.0201 32.5135 19.9503C32.4891 19.5874 32.4508 19.2245 32.3951 18.8686C32.3881 18.8303 32.3811 18.7919 32.3742 18.7535C32.3184 18.4115 32.2452 18.0696 32.1616 17.7346C32.1477 17.6858 32.1372 17.6334 32.1268 17.5846C32.0362 17.2392 31.9282 16.8972 31.8097 16.5588C31.7854 16.489 31.761 16.4227 31.7366 16.3529C31.6112 16.0179 31.4753 15.6865 31.322 15.362C31.3011 15.3166 31.2767 15.2712 31.2523 15.2259C31.1025 14.9118 30.9387 14.6083 30.761 14.3082C30.7401 14.2733 30.7227 14.2384 30.7018 14.207C30.5137 13.8965 30.3116 13.5964 30.0991 13.3033C30.0573 13.244 30.0154 13.1882 29.9736 13.1288C29.7576 12.8427 29.5312 12.5636 29.2908 12.2914C29.249 12.2461 29.2071 12.2042 29.1688 12.1588C28.9249 11.8937 28.6741 11.6355 28.4058 11.3912C28.3884 11.3738 28.371 11.3563 28.3536 11.3424C28.0783 11.0911 27.7857 10.8539 27.4825 10.6271C27.4268 10.5852 27.3676 10.5398 27.3118 10.498C27.0157 10.2816 26.7056 10.0723 26.3851 9.88037C26.3258 9.84548 26.2666 9.81058 26.2074 9.77569C25.8694 9.57681 25.521 9.38839 25.1587 9.2209C24.7929 9.04993 24.4235 8.90338 24.0507 8.77079C23.9915 8.74986 23.9323 8.72892 23.8731 8.70799C23.5351 8.59284 23.1937 8.49514 22.8522 8.40791C22.3296 8.27183 21.7931 8.14971 21.2356 8.07295C20.8803 8.0241 20.5214 7.99269 20.1695 7.97525C16.3963 7.78683 12.8077 9.40932 10.3131 12.1728C10.2957 12.1902 10.2783 12.2042 10.2643 12.2216C10.2469 12.2391 10.233 12.26 10.2191 12.2775C9.97865 12.5496 9.74523 12.8288 9.52573 13.1219C9.48392 13.1812 9.44211 13.237 9.39682 13.2963C9.29926 13.4324 9.19475 13.5685 9.10068 13.7115C9.03796 13.8058 8.98222 13.9069 8.9195 14.0012C8.8986 14.0326 8.88118 14.064 8.86028 14.0954C8.80801 14.1826 8.75227 14.2663 8.70001 14.3536C8.66517 14.4129 8.62684 14.4722 8.592 14.5315C8.44219 14.7967 8.30283 15.0723 8.17043 15.3515C8.15998 15.3759 8.14604 15.3968 8.13559 15.4178L0.0560697 32.7732C-0.0832925 33.0768 0.0456162 33.4327 0.348729 33.5758L6.28556 36.3497C6.58867 36.4893 6.94405 36.3602 7.08689 36.0566L10.1842 29.4061L10.1947 29.3852L15.1664 18.7046C15.2674 18.4883 15.3859 18.2859 15.5113 18.0905C15.5462 18.0382 15.581 17.9859 15.6159 17.9335C15.6298 17.9126 15.6472 17.8951 15.6646 17.8742C15.7448 17.7591 15.8354 17.6509 15.9225 17.5462C15.9608 17.4974 15.9991 17.452 16.0409 17.4066C16.1001 17.3438 16.1629 17.281 16.2256 17.2217C16.2918 17.1589 16.3545 17.0961 16.4242 17.0368C17.6819 15.9377 19.4344 15.5155 21.0928 15.9795C21.2217 16.0179 21.3506 16.0528 21.4725 16.1017C21.5387 16.1261 21.6015 16.154 21.6642 16.1784C21.7826 16.2273 21.8976 16.2796 22.0091 16.3355C22.0753 16.3669 22.138 16.4017 22.2007 16.4366C22.3087 16.496 22.4132 16.5623 22.5143 16.6285C22.57 16.6669 22.6258 16.7018 22.6815 16.7402C22.793 16.8205 22.901 16.9077 23.0055 16.9949C23.0404 17.0263 23.0787 17.0542 23.117 17.0856C23.2529 17.2078 23.3818 17.3369 23.5038 17.4729C23.5316 17.5043 23.5525 17.5357 23.5804 17.5671C23.671 17.6753 23.7616 17.7835 23.8417 17.8986C23.88 17.951 23.9114 18.0033 23.9462 18.0556C24.0124 18.1533 24.0751 18.2545 24.1309 18.3557C24.1657 18.415 24.1971 18.4743 24.225 18.5337C24.2772 18.6383 24.326 18.743 24.3713 18.8477C24.3957 18.907 24.4235 18.9663 24.4479 19.0291C24.4932 19.1478 24.5316 19.2699 24.5699 19.392C24.5838 19.4409 24.6047 19.4932 24.6152 19.5421C24.6605 19.7165 24.6988 19.891 24.7267 20.0689C24.7301 20.0934 24.7301 20.1178 24.7336 20.1422C24.7545 20.2957 24.772 20.4493 24.7789 20.6063C24.7789 20.6656 24.7789 20.7284 24.7789 20.7877C24.7789 20.9098 24.7789 21.032 24.772 21.1506C24.7685 21.2169 24.7615 21.2867 24.7545 21.3565C24.7441 21.4716 24.7267 21.5902 24.7058 21.7089C24.6953 21.7752 24.6814 21.8449 24.6674 21.9112C24.6396 22.0369 24.6082 22.159 24.5699 22.2811C24.5525 22.3404 24.5385 22.3962 24.5211 22.4521C24.4619 22.63 24.3922 22.808 24.3121 22.9824C23.1344 25.5121 20.1312 26.6077 17.6052 25.4284C16.4032 24.8666 15.5322 23.8896 15.0689 22.7487L11.3792 30.5471C12.2503 31.3008 13.2328 31.9567 14.3268 32.4697C20.7339 35.4634 28.3536 32.686 31.3429 26.2658C31.5101 25.9029 31.6564 25.5366 31.7888 25.1667C31.8132 25.1004 31.8376 25.0376 31.8585 24.9713C31.9805 24.6154 32.085 24.2595 32.1721 23.9001C32.1895 23.8303 32.2034 23.7605 32.2209 23.6908C32.3045 23.3209 32.3776 22.951 32.4264 22.5812C32.4299 22.5568 32.4299 22.5323 32.4334 22.5079C32.4822 22.1485 32.51 21.7891 32.524 21.4297C32.524 21.3704 32.5309 21.3076 32.5344 21.2483C32.5449 20.8854 32.5414 20.526 32.5205 20.1666" fill="#1D5CFF"/>
<path d="M42.5352 9.33838H49.3447C53.955 9.33838 56.6538 11.9085 56.6538 15.8282C56.6538 19.7479 53.955 22.3636 49.3447 22.3636H46.4944V27.0907H42.5352V9.33838ZM49.1705 18.8571C51.3659 18.8571 52.6945 17.8108 52.6945 15.8282C52.6945 13.8456 51.3659 12.8449 49.1705 12.8449H46.4944V18.8571H49.1705Z" fill="white"/>
<path d="M69.3324 27.0907L65.8955 21.4917H62.7425V27.0907H58.7832V9.33838H65.9182C70.4188 9.33838 73.0532 11.7342 73.0532 15.415C73.0532 17.8563 71.8988 19.729 69.8131 20.707L73.9238 27.0907H69.3362H69.3324ZM62.7425 17.9852H65.7441C67.8335 17.9852 69.094 17.0943 69.094 15.415C69.094 13.7357 67.8335 12.8449 65.7441 12.8449H62.7425V17.9852Z" fill="white"/>
<path d="M74.7695 18.201C74.7695 12.8218 78.8348 8.87939 84.3384 8.87939C89.842 8.87939 93.9073 12.8218 93.9073 18.201C93.9073 23.5801 89.842 27.5263 84.3384 27.5263C78.8348 27.5263 74.7695 23.5839 74.7695 18.201ZM89.9518 18.201C89.9518 14.8461 87.5596 12.4503 84.3384 12.4503C81.1172 12.4503 78.725 14.8461 78.725 18.201C78.725 21.5558 81.1172 23.9516 84.3384 23.9516C87.5596 23.9516 89.9518 21.5331 89.9518 18.201Z" fill="white"/>
<path d="M95.4741 18.201C95.4741 12.8218 99.4977 8.87939 104.956 8.87939C109.827 8.87939 113.09 11.8211 113.809 15.5664H109.809C109.396 13.8681 107.59 12.5148 105.047 12.5148C101.829 12.5148 99.4334 14.8878 99.4334 18.201C99.4334 21.5141 101.826 23.8872 105.047 23.8872C107.59 23.8872 109.68 22.2116 109.983 20.5967H113.984C113.438 24.1677 109.873 27.5225 104.956 27.5225C99.4977 27.5225 95.4741 23.5801 95.4741 18.1972" fill="white"/>
<path d="M120.229 9.33838V23.5842H129.078V27.0907H116.27V9.33838H120.229Z" fill="white"/>
<path d="M142.414 23.6486H135.54L134.298 27.0907H130.21L137.084 9.33838H141.195L148.069 27.0907H143.652L142.414 23.6486ZM141.195 20.2066L138.977 14.02L136.759 20.2066H141.195Z" fill="white"/>
<path d="M163.531 14.6947H159.443C159.204 13.148 158.05 12.2117 156.157 12.2117C154.265 12.2117 153.288 12.9509 153.288 14.0199C153.288 15.3505 154.658 15.8054 158.118 16.5256C162.206 17.3748 163.599 19.3991 163.599 22.0602C163.599 25.4568 160.4 27.5265 156.441 27.5265C152.069 27.5265 148.871 25.1535 148.697 21.3627H152.762C152.978 23.061 154.458 24.1944 156.721 24.1944C158.33 24.1944 159.526 23.387 159.526 22.2346C159.526 20.8168 158.33 20.252 155.177 19.6644C151.327 18.9442 149.238 17.3558 149.238 14.0237C149.238 10.6916 152.414 8.90234 156.415 8.90234C160.416 8.90234 163.33 11.3209 163.527 14.6985" fill="white"/>
<path d="M179.932 14.6947H175.844C175.605 13.148 174.451 12.2117 172.558 12.2117C170.666 12.2117 169.689 12.9509 169.689 14.0199C169.689 15.3505 171.059 15.8054 174.519 16.5256C178.607 17.3748 180 19.3991 180 22.0602C180 25.4568 176.801 27.5265 172.842 27.5265C168.47 27.5265 165.272 25.1535 165.098 21.3627H169.163C169.379 23.061 170.859 24.1944 173.122 24.1944C174.731 24.1944 175.927 23.387 175.927 22.2346C175.927 20.8168 174.731 20.252 171.578 19.6644C167.728 18.9442 165.639 17.3558 165.639 14.0237C165.639 10.6916 168.815 8.90234 172.816 8.90234C176.817 8.90234 179.731 11.3209 179.928 14.6985" fill="white"/>
</svg>
